<?xml version="1.0" encoding="UTF-8"?>
<svg xmlns="http://www.w3.org/2000/svg" xmlns:xlink="http://www.w3.org/1999/xlink" width="19px" height="19px" viewBox="0 0 19 19" version="1.1">
<g id="surface1">
<path style=" stroke:none;fill-rule:nonzero;fill:rgb(0%,0%,0%);fill-opacity:1;" d="M 18.703125 9.5 C 18.703125 4.414062 14.585938 0.296875 9.5 0.296875 C 4.414062 0.296875 0.296875 4.414062 0.296875 9.5 C 0.296875 14.09375 3.664062 17.902344 8.0625 18.59375 L 8.0625 12.160156 L 5.722656 12.160156 L 5.722656 9.5 L 8.0625 9.5 L 8.0625 7.472656 C 8.0625 5.164062 9.433594 3.890625 11.539062 3.890625 C 12.546875 3.890625 13.597656 4.070312 13.597656 4.070312 L 13.597656 6.335938 L 12.4375 6.335938 C 11.292969 6.335938 10.9375 7.042969 10.9375 7.773438 L 10.9375 9.5 L 13.492188 9.5 L 13.082031 12.160156 L 10.9375 12.160156 L 10.9375 18.59375 C 15.335938 17.902344 18.703125 14.09375 18.703125 9.5 Z M 18.703125 9.5 "/>
</g>
</svg>
