<?xml version="1.0" encoding="UTF-8"?>
<svg xmlns="http://www.w3.org/2000/svg" xmlns:xlink="http://www.w3.org/1999/xlink" width="19px" height="19px" viewBox="0 0 19 19" version="1.1">
<g id="surface1">
<path style=" stroke:none;fill-rule:nonzero;fill:rgb(0%,0%,0%);fill-opacity:1;" d="M 9.503906 5.234375 C 6.808594 5.234375 4.632812 7.136719 4.632812 9.496094 C 4.632812 11.855469 6.808594 13.761719 9.503906 13.761719 C 12.203125 13.761719 14.378906 11.855469 14.378906 9.496094 C 14.378906 7.136719 12.203125 5.234375 9.503906 5.234375 Z M 9.503906 12.269531 C 7.761719 12.269531 6.335938 11.023438 6.335938 9.496094 C 6.335938 7.96875 7.757812 6.722656 9.503906 6.722656 C 11.25 6.722656 12.671875 7.96875 12.671875 9.496094 C 12.671875 11.023438 11.246094 12.269531 9.503906 12.269531 Z M 15.714844 5.058594 C 15.714844 5.609375 15.203125 6.050781 14.578125 6.050781 C 13.945312 6.050781 13.441406 5.605469 13.441406 5.058594 C 13.441406 4.507812 13.949219 4.0625 14.578125 4.0625 C 15.203125 4.0625 15.714844 4.507812 15.714844 5.058594 Z M 18.941406 6.066406 C 18.867188 4.734375 18.519531 3.554688 17.40625 2.582031 C 16.292969 1.609375 14.945312 1.304688 13.421875 1.238281 C 11.855469 1.160156 7.152344 1.160156 5.582031 1.238281 C 4.0625 1.300781 2.714844 1.605469 1.597656 2.578125 C 0.484375 3.550781 0.140625 4.730469 0.0625 6.0625 C -0.0273438 7.4375 -0.0273438 11.550781 0.0625 12.925781 C 0.136719 14.257812 0.484375 15.4375 1.597656 16.410156 C 2.714844 17.382812 4.058594 17.6875 5.582031 17.753906 C 7.152344 17.832031 11.855469 17.832031 13.421875 17.753906 C 14.945312 17.691406 16.292969 17.386719 17.40625 16.410156 C 18.515625 15.4375 18.863281 14.257812 18.941406 12.925781 C 19.03125 11.550781 19.03125 7.441406 18.941406 6.066406 Z M 16.914062 14.398438 C 16.582031 15.125 15.941406 15.6875 15.105469 15.980469 C 13.855469 16.414062 10.886719 16.3125 9.503906 16.3125 C 8.121094 16.3125 5.148438 16.410156 3.902344 15.980469 C 3.070312 15.691406 2.429688 15.128906 2.09375 14.398438 C 1.597656 13.304688 1.714844 10.707031 1.714844 9.496094 C 1.714844 8.285156 1.601562 5.683594 2.09375 4.59375 C 2.425781 3.867188 3.066406 3.304688 3.902344 3.011719 C 5.152344 2.578125 8.121094 2.679688 9.503906 2.679688 C 10.886719 2.679688 13.859375 2.582031 15.105469 3.011719 C 15.9375 3.304688 16.578125 3.863281 16.914062 4.59375 C 17.410156 5.6875 17.296875 8.285156 17.296875 9.496094 C 17.296875 10.707031 17.410156 13.308594 16.914062 14.398438 Z M 16.914062 14.398438 "/>
</g>
</svg>
