<?xml version="1.0" encoding="UTF-8"?>
<svg xmlns="http://www.w3.org/2000/svg" xmlns:xlink="http://www.w3.org/1999/xlink" width="19px" height="19px" viewBox="0 0 19 19" version="1.1">
<g id="surface1">
<path style=" stroke:none;fill-rule:nonzero;fill:rgb(0%,0%,0%);fill-opacity:1;" d="M 18.132812 4.605469 C 17.921875 3.726562 17.3125 3.035156 16.539062 2.800781 C 15.132812 2.375 9.5 2.375 9.5 2.375 C 9.5 2.375 3.867188 2.375 2.460938 2.800781 C 1.6875 3.035156 1.078125 3.726562 0.867188 4.605469 C 0.492188 6.195312 0.492188 9.515625 0.492188 9.515625 C 0.492188 9.515625 0.492188 12.832031 0.867188 14.425781 C 1.078125 15.300781 1.6875 15.964844 2.460938 16.199219 C 3.867188 16.625 9.5 16.625 9.5 16.625 C 9.5 16.625 15.132812 16.625 16.539062 16.199219 C 17.3125 15.964844 17.921875 15.300781 18.132812 14.425781 C 18.507812 12.832031 18.507812 9.515625 18.507812 9.515625 C 18.507812 9.515625 18.507812 6.195312 18.132812 4.605469 Z M 7.65625 12.527344 L 7.65625 6.5 L 12.367188 9.515625 Z M 7.65625 12.527344 "/>
</g>
</svg>
